<?xml version="1.0" standalone="no"?><!DOCTYPE svg PUBLIC "-//W3C//DTD SVG 1.1//EN" "http://www.w3.org/Graphics/SVG/1.1/DTD/svg11.dtd"><svg class="icon" width="200px" height="200.00px" viewBox="0 0 1024 1024" version="1.1" xmlns="http://www.w3.org/2000/svg"><path fill="#333333" d="M704.9 777.7c-68.7 0-124.5-55.7-124.5-124.5s55.7-124.5 124.5-124.5 124.5 55.7 124.5 124.5-55.8 124.5-124.5 124.5zM883.2 320l1-1.2c17.7-21.1 14.9-52.5-6.1-70.1L690.4 91.2c-18.7-15.7-41.4-23.3-64-23.3-28.4 0-56.6 12.1-76.3 35.6L370.8 317.2H195l152.5-181.7c9.5-11.3 23.4-17.8 38.2-17.8 8.2 0 20.5 2 31.9 11.6l65.1 54.6 32-38.1-65.1-54.6c-18.7-15.7-41.4-23.3-64-23.3-28.4 0-56.6 12.1-76.3 35.6L122.4 326.2C88 342 63.9 376.7 63.9 416.8v441.8c0 54.8 44.8 99.6 99.6 99.6h697c54.8 0 99.6-44.8 99.6-99.6V416.8c-0.1-46.9-33-86.5-76.9-96.8zM588.3 135.5c9.5-11.3 23.4-17.8 38.2-17.8 8.2 0 20.5 2 31.9 11.6L827 270.8c10.5 8.8 11.9 24.5 3.1 35.1l-9.5 11.4H435.8l152.5-181.8z" /></svg>