<?xml version="1.0" standalone="no"?><!DOCTYPE svg PUBLIC "-//W3C//DTD SVG 1.1//EN" "http://www.w3.org/Graphics/SVG/1.1/DTD/svg11.dtd"><svg class="icon" width="200px" height="200.00px" viewBox="0 0 1024 1024" version="1.1" xmlns="http://www.w3.org/2000/svg"><path fill="#333333" d="M512 64.4c247.2 0 447.6 200.4 447.6 447.6S759.2 959.6 512 959.6 64.4 759.2 64.4 512 264.8 64.4 512 64.4z m0 74.6c-206 0-373 167-373 373s167 373 373 373 373-167 373-373-167-373-373-373z m223.8 340.7c17.9 0 32.3 14.5 32.3 32.3 0 141.4-114.7 256.1-256.1 256.1S255.9 653.4 255.9 512c0-17.9 14.5-32.3 32.3-32.3s32.3 14.5 32.3 32.3c0 105.7 85.7 191.5 191.5 191.5S703.5 617.7 703.5 512c0-17.9 14.4-32.3 32.3-32.3zM398.6 348.8c27.5 0 49.7 22.3 49.7 49.7s-22.3 49.7-49.7 49.7-49.7-22.3-49.7-49.7 22.2-49.7 49.7-49.7z m244.7 0c27.5 0 49.7 22.3 49.7 49.7s-22.3 49.7-49.7 49.7-49.7-22.3-49.7-49.7 22.3-49.7 49.7-49.7z" /></svg>