<?xml version="1.0" standalone="no"?><!DOCTYPE svg PUBLIC "-//W3C//DTD SVG 1.1//EN" "http://www.w3.org/Graphics/SVG/1.1/DTD/svg11.dtd"><svg class="icon" width="200px" height="200.00px" viewBox="0 0 1024 1024" version="1.1" xmlns="http://www.w3.org/2000/svg"><path fill="#333333" d="M374.2 770.5c0 47.6-38.6 86.1-86.1 86.1-47.6 0-86.2-38.6-86.2-86.1 0-47.6 38.6-86.2 86.2-86.2 47.5 0 86.1 38.6 86.1 86.2z m482.4 0c0 47.6-38.6 86.1-86.2 86.1s-86.2-38.6-86.2-86.1c0-47.6 38.6-86.2 86.2-86.2s86.2 38.6 86.2 86.2z m77-293.6l-77-137.2c-15.7-19-26.4-34.5-51.7-34.5H684.3V201.8c0-19-15.5-34.5-34.5-34.5H98.5c-19 0-34.5 15.5-34.5 34.5v516.9c0 19 15.5 34.5 34.5 34.5h68.7c8.5-59.4 59.1-105.3 120.8-105.3 61.7 0 112.4 46 120.8 105.3h240.8c8.5-59.4 59.2-105.3 120.8-105.3 61.7 0 112.4 46 120.8 105.3h34.3c19 0 34.5-15.5 34.5-34.5V546.5c0-32.7-26.4-69.6-26.4-69.6z m-214.8 69.6V374.2h84.3c5.6 0 13.3 8.1 13.3 8.1L889 517.2c6.4 9.5 13.4 20.7 13.4 29.3H718.8z m0 0" /></svg>