<?xml version="1.0" standalone="no"?><!DOCTYPE svg PUBLIC "-//W3C//DTD SVG 1.1//EN" "http://www.w3.org/Graphics/SVG/1.1/DTD/svg11.dtd"><svg class="icon" width="200px" height="200.00px" viewBox="0 0 1024 1024" version="1.1" xmlns="http://www.w3.org/2000/svg"><path fill="#333333" d="M967.328 379.878C922.488 125.823 677.292-40.311 423.259 8.517 143.861 62.314-21.193 355.011 77.065 621.958c70.418 190.535 257.204 313.047 460.749 301.751 9.507-0.679 17.397 1.23 16.945 9.82-0.227 10.854 0 32.476 0 32.25 0 10.628 0.226 20.156 0 32.735-0.227 12.568-1.078 22.582 4.074 24.834 5.152 2.253 16.34-1.767 24.037-5.831 1.584-0.905 3.169-1.81 4.753-2.943 26.947-19.434 54.11-38.2 80.604-58.313 18.787-14.239 38.49-28.025 53.43-46.79 12.223-15.145 16.782-26.624 16.782-36.724s-22.44-28.154-30.373-34.03c-39.396-29.61-79.02-59.444-120.452-86.111-23.778-15.144-32.423-6.37-32.876 21.88-0.226 16.955 0.453 33.9 0.68 50.855 0.226 16.05-7.201 16.772-23.057 17.45-30.568 1.36-60.9-0.678-91.242-6.1-204.203-36.625-343.898-235.763-307.895-438.953C163.781 224.825 300.996 97.345 476.464 81.07c109.123-10.175 206.487 21.47 287.544 94.701 101.428 91.318 143.088 206.36 124.527 341.526-11.091 80.916-45.282 151.442-104.382 209.076-18.335 17.86-17.43 46.338 1.81 63.066 19.015 16.502 47.773 13.333 62.938-7.232 3.848-4.97 7.244-10.628 11.318-15.37 95.554-112.563 132.686-242.07 107.109-386.96zM511.849 183.186c-154.73 0-280.161 125.433-280.161 280.163 0 154.729 125.432 280.16 280.161 280.16 154.73 0 280.162-125.432 280.162-280.16 0-154.74-125.432-280.163-280.162-280.163z m21.655 361.305c-0.14 5.098 4.376 6.122 9.313 5.39 21.773 0.452 78.858-0.13 81.768 0 16.136 0.743 27.335 8.482 27.335 26.784 0 18.303-10.143 26.69-27.335 26.69-26.473 0-52.655 0.29-79.127 0-6.403-0.152-13.118 5.42-12.396 12.265 0.873 7.426 0.658 8.612 0.658 24.748s-9.206 28.1-27.27 27.67c-18.066-0.443-27.52-10.532-27.52-27.67 0-8.947-0.15-17.936 0-26.969 0.141-4.958-2.726-10.186-7.383-10.186-26.623 0.151-53.387 0.151-80.01 0.151-16.438 0-30.408-8.44-30.558-25.05-0.14-15.586 12.654-28.283 28.951-28.423 13.528 0 67.788-0.15 74.6 0.14 11.372 0 14.25-0.55 14.25-4.775-0.14-17.925-0.14-35.99 0.15-53.905 0.141-5.54-4.009-6.618-8.698-6.618-25.75 0.29-46.079 0-73.468 0-15.51 0-24.942-8.46-24.942-25.74s13.075-27.96 24.942-27.96h74.783c5.422 0 6.942-0.01 7.384-5.11 1.164-11.65-4.042-25.932-12.33-34.534-22.55-23.314-44.226-47.793-66.043-71.83-9.162-10.056-15.715-21.277-11.35-35.548 3.633-11.943 13.68-17.774 25.89-15.446 11.2 2.188 20.071 8.01 27.79 16.168 20.22 21.558 40.732 42.986 60.802 64.695 3.632 3.934 5.378 4.376 9.453 0.442 23.713-23.024 47.718-45.606 71.722-68.187 8.44-8.009 18.184-13.118 30.407-10.197 17.31 4.075 24.295 21.57 14.55 36.282-2.618 4.074-5.96 7.717-9.312 11.22-25.75 26.807-51.21 53.765-77.391 80.13-7.567 7.717-9.324 21.31-9.475 29.62-0.14 3.352 6.79 2.307 9.173 2.307 24.004 0 59.1-0.4 83.557 0 17.677 0.29 25.546 11.878 25.546 27.96s-9.593 25.47-27.335 25.47-55.155 0.41-82.35 0.27c-6.543 0-8.731 3.394-8.58 10.24 0.43 16.436 0.14 33.036-0.151 49.506z" /></svg>