<?xml version="1.0" standalone="no"?><!DOCTYPE svg PUBLIC "-//W3C//DTD SVG 1.1//EN" "http://www.w3.org/Graphics/SVG/1.1/DTD/svg11.dtd"><svg class="icon" width="200px" height="199.61px" viewBox="0 0 1026 1024" version="1.1" xmlns="http://www.w3.org/2000/svg"><path fill="#333333" d="M924.9 132h-824c-55.2 0-100 44.8-100 100v122.3h-0.9v51.2h0.9V792c0 55.2 44.8 100 100 100h824c55.2 0 100-44.8 100-100V505.5h-51.2V792c0 26.9-21.9 48.8-48.8 48.8h-824c-26.9 0-48.8-21.9-48.8-48.8V405.5h972.8V232c0-55.2-44.8-100-100-100zM52.1 354.3V232c0-26.9 21.9-48.8 48.8-48.8h824c26.9 0 48.8 21.9 48.8 48.8v122.3H52.1z"  /><path fill="#333333" d="M685.6 604c-44.2 0-80 35.8-80 80s35.8 80 80 80 80-35.8 80-80-35.8-80-80-80z m0 108.8c-15.9 0-28.8-12.9-28.8-28.8s12.9-28.8 28.8-28.8 28.8 12.9 28.8 28.8-12.9 28.8-28.8 28.8z"  /><path fill="#333333" d="M871.6 684c0-44.2-35.8-80-80-80-9.5 0-18.7 1.7-27.2 4.7 12.3 12.9 21.5 28.8 26.3 46.5h0.8c15.9 0 28.8 12.9 28.8 28.8s-12.9 28.8-28.8 28.8h-0.8c-4.8 17.7-14 33.6-26.3 46.5 8.5 3.1 17.6 4.7 27.2 4.7 44.2 0 80-35.8 80-80z"  /></svg>