<?xml version="1.0" standalone="no"?><!DOCTYPE svg PUBLIC "-//W3C//DTD SVG 1.1//EN" "http://www.w3.org/Graphics/SVG/1.1/DTD/svg11.dtd"><svg class="icon" width="200px" height="200.00px" viewBox="0 0 1024 1024" version="1.1" xmlns="http://www.w3.org/2000/svg"><path fill="#333333" d="M511.3 22.5C313.4 22.5 152.9 183 152.9 381c0 129 104.2 285.6 208.1 379 9.7 8.7 19.5 16.9 29.1 24.5 0.2 0.1 0.3 0.3 0.5 0.4 1.7 1.4 3.5 2.7 5.2 4 0.1 0.1 0.3 0.2 0.4 0.3 1.7 1.3 3.5 2.6 5.2 3.9 0.3 0.2 0.7 0.5 1 0.7 1.6 1.2 3.2 2.3 4.7 3.4 0.1 0.1 0.3 0.2 0.4 0.3l4.2 3c0.5 0.4 1 0.7 1.6 1.1 0.8 0.6 1.6 1.1 2.5 1.7 0.7 0.5 1.4 1 2.1 1.4 0.5 0.3 0.9 0.6 1.4 0.9 20 13.2 39.2 23.3 56.7 29.3 0.1 0 0.3 0.1 0.4 0.1 0.8 0.3 1.6 0.5 2.4 0.8 0.3 0.1 0.7 0.2 1 0.3 0.6 0.2 1.2 0.4 1.8 0.5 0.5 0.2 1 0.3 1.5 0.4l1.2 0.3c0.6 0.2 1.3 0.4 1.9 0.5 0.2 0 0.4 0.1 0.6 0.1 2.1 0.6 4.2 1 6.2 1.5-0.1 0-0.3-0.1-0.5-0.1 2.2 0.5 4.2 0.8 6.2 1.1 0.1 0 0.3 0 0.4 0.1 0.6 0.1 1.3 0.2 1.9 0.3 0.2 0 0.4 0.1 0.6 0.1 0.7 0.1 1.4 0.2 2.1 0.2 0.6 0.1 1.2 0.1 1.7 0.1 0.3 0 0.6 0 1 0.1 0.5 0 1.1 0.1 1.6 0.1H514.2c0.5 0 1.1-0.1 1.6-0.1 0.3 0 0.6 0 1-0.1 0.6 0 1.2-0.1 1.8-0.2 0.7-0.1 1.4-0.1 2.1-0.2 0.2 0 0.4 0 0.7-0.1 0.6-0.1 1.2-0.2 1.9-0.3 0.1 0 0.3 0 0.4-0.1 2.5-0.4 5.1-0.9 7.8-1.5-0.7 0.2-1.4 0.3-2.1 0.5 2-0.4 4.1-0.9 6.2-1.5-1.1 0.3-2.1 0.5-3.2 0.8 1-0.2 2.1-0.5 3.2-0.8 0.2-0.1 0.4-0.1 0.6-0.2 0.6-0.2 1.3-0.3 1.9-0.5l1.2-0.3c0.5-0.1 1-0.3 1.5-0.4l1.8-0.6c0.3-0.1 0.6-0.2 1-0.3 0.8-0.3 1.6-0.5 2.4-0.8 0.1 0 0.2-0.1 0.4-0.1 17.6-6.1 36.8-16.1 56.8-29.4 0.4-0.3 0.9-0.6 1.3-0.9 0.7-0.5 1.5-1 2.2-1.5 0.8-0.5 1.6-1.1 2.4-1.6 0.5-0.4 1.1-0.7 1.6-1.1l4.2-3c1.7-1.2 3.4-2.5 5.1-3.7 0.4-0.3 0.8-0.6 1.1-0.8 1.7-1.3 3.4-2.5 5.1-3.8 0.2-0.1 0.4-0.3 0.6-0.4 1.6-1.2 3.3-2.5 4.9-3.8 0.2-0.2 0.5-0.4 0.7-0.6 1.8-1.4 3.7-2.9 5.5-4.4l0.2-0.2c7.7-6.3 15.5-12.9 23.3-19.9 103.9-93.4 208.1-250 208.1-379 0.2-197.5-160.2-358-358.2-358z m183.3 631.1c-34.4 41.3-73 78-108.5 103.3-36.1 25.7-62.2 34.9-74.7 34.9s-38.6-9.2-74.7-34.9c-35.5-25.3-74.1-62-108.5-103.3-37-44.3-68-92.2-89.9-138.4-23.1-49-35.3-95.4-35.3-134.2 0-82.4 32.1-159.8 90.3-218.1 58.2-58.3 135.7-90.3 218.1-90.3s159.8 32.1 218.1 90.3c58.2 58.3 90.3 135.7 90.3 218.1 0 38.8-12.2 85.2-35.3 134.2-21.9 46.2-53 94-89.9 138.4z"  /><path fill="#333333" d="M511.3 457.1c-56.1 0-101.8-45.7-101.8-101.8 0-56.1 45.7-101.8 101.8-101.8 56.1 0 101.8 45.7 101.8 101.8 0 56.2-45.6 101.8-101.8 101.8z m0-153.6c-28.6 0-51.8 23.2-51.8 51.8 0 28.6 23.2 51.8 51.8 51.8 28.6 0 51.8-23.2 51.8-51.8 0-28.5-23.2-51.8-51.8-51.8z"  /><path fill="#333333" d="M648 704.2c-20.8 20.4-41.8 38.4-61.9 52.7-36.1 25.7-62.2 34.9-74.7 34.9s-38.6-9.2-74.7-34.9c-20.1-14.3-41.2-32.3-61.9-52.7-101.1 25.1-170.6 77.3-170.6 137.6 0 84.8 137.6 153.6 307.2 153.6 169.7 0 307.2-68.8 307.2-153.6-0.1-60.3-69.5-112.5-170.6-137.6z m58.2 201.5c-50.5 25.2-121.5 39.7-194.9 39.7s-144.4-14.5-194.9-39.7c-38.5-19.2-62.3-43.7-62.3-63.9 0-17.7 17.8-34.4 28.4-42.8 19.3-15.2 46.6-28.8 78.6-39 15.7 14.1 31.3 26.7 46.5 37.6 51.2 36.5 84.7 44.2 103.7 44.2 19.1 0 52.5-7.7 103.7-44.2 15.3-10.9 30.9-23.5 46.5-37.6 32 10.3 59.3 23.8 78.6 39 10.6 8.4 28.4 25.1 28.4 42.8 0 20.1-23.8 44.6-62.3 63.9z"  /></svg>