<?xml version="1.0" standalone="no"?><!DOCTYPE svg PUBLIC "-//W3C//DTD SVG 1.1//EN" "http://www.w3.org/Graphics/SVG/1.1/DTD/svg11.dtd"><svg class="icon" width="200px" height="200.00px" viewBox="0 0 1024 1024" version="1.1" xmlns="http://www.w3.org/2000/svg"><path fill="#333333" d="M512 62c65.9 0 129.6 6 189.6 17.9 57 11.3 107.9 27.3 151.2 47.7 40.4 18.9 72.8 41.2 93.8 64.5 18.2 20.1 27.4 40.3 27.4 59.9s-9.2 39.8-27.4 59.9c-21 23.3-53.4 45.6-93.8 64.5-43.4 20.3-94.2 36.4-151.2 47.7C641.6 436 577.9 442 512 442s-129.6-6-189.6-17.9c-57-11.3-107.9-27.3-151.2-47.7-40.4-18.9-72.8-41.2-93.8-64.5C59.2 291.8 50 271.6 50 252s9.2-39.8 27.4-59.9c21-23.3 53.4-45.6 93.8-64.5 43.4-20.3 94.2-36.4 151.2-47.7C382.4 68 446.1 62 512 62m0-50C229.2 12 0 119.5 0 252s229.2 240 512 240 512-107.5 512-240S794.8 12 512 12zM967.7 704.5c-8.5 7.8-10.6 20.4-4.9 30.4 7.4 12.8 11.2 25.5 11.2 38.1 0 19.6-9.2 39.8-27.4 59.9-21 23.3-53.4 45.6-93.8 64.5-43.4 20.3-94.2 36.4-151.2 47.7C641.6 957 577.9 963 512 963s-129.6-6-189.6-17.9c-57-11.3-107.9-27.3-151.2-47.7-40.4-18.9-72.8-41.2-93.8-64.5C59.2 812.8 50 792.6 50 773c0-12.5 3.8-25.3 11.2-38.1 5.8-10 3.7-22.6-4.9-30.4-0.2-0.2-0.4-0.3-0.5-0.5-11.5-10.6-30-7.7-37.9 5.8C6.2 730 0 751.1 0 773c0 132.5 229.2 240 512 240s512-107.5 512-240c0-21.9-6.2-43-17.9-63.1-7.9-13.5-26.3-16.4-37.9-5.8-0.2 0.1-0.3 0.3-0.5 0.4zM967.3 443.8c-8.6 7.8-10.7 20.6-4.8 30.6 7.6 13 11.4 25.8 11.4 38.5 0 19.6-9.2 39.8-27.4 59.9-21 23.3-53.4 45.6-93.8 64.5-43.4 20.3-94.2 36.4-151.2 47.7-59.9 12-123.6 18-189.5 18s-129.6-6-189.6-17.9c-57-11.3-107.9-27.3-151.2-47.7-40.4-18.9-72.8-41.2-93.8-64.5C59.2 552.8 50 532.6 50 513c0-12.7 3.8-25.6 11.4-38.5 5.9-10 3.8-22.8-4.8-30.6-0.1-0.1-0.3-0.2-0.4-0.4-11.6-10.6-29.9-8-37.8 5.5C6.4 469.4 0 490.8 0 513c0 132.5 229.2 240 512 240s512-107.5 512-240c0-22.2-6.4-43.6-18.4-64-7.9-13.5-26.3-16.1-37.8-5.5-0.2 0.1-0.3 0.2-0.5 0.3z" /></svg>