<?xml version="1.0" standalone="no"?><!DOCTYPE svg PUBLIC "-//W3C//DTD SVG 1.1//EN" "http://www.w3.org/Graphics/SVG/1.1/DTD/svg11.dtd"><svg class="icon" width="200px" height="200.00px" viewBox="0 0 1024 1024" version="1.1" xmlns="http://www.w3.org/2000/svg"><path fill="#333333" d="M358.4 917.333333c-81.066667-12.8-145.066667-85.333333-145.066667-170.666666V392.533333C213.333333 251.733333 315.733333 128 452.266667 110.933333 622.933333 85.333333 768 217.6 768 384v315.733333h64V396.8c0-183.466667-136.533333-341.333333-320-354.133333C315.733333 29.866667 149.333333 187.733333 149.333333 384v362.666667c0 115.2 85.333333 213.333333 196.266667 230.4 21.333333 4.266667 38.4-12.8 38.4-29.866667 0-17.066667-12.8-29.866667-25.6-29.866667z"  /><path fill="#333333" d="M149.333333 490.666667H85.333333c-12.8 0-21.333333 8.533333-21.333333 21.333333v128c0 12.8 8.533333 21.333333 21.333333 21.333333h64v-170.666666zM85.333333 426.666667h128v298.666666H85.333333c-46.933333 0-85.333333-38.4-85.333333-85.333333v-128c0-46.933333 38.4-85.333333 85.333333-85.333333zM832 490.666667H896c12.8 0 21.333333 8.533333 21.333333 21.333333v128c0 12.8-8.533333 21.333333-21.333333 21.333333h-64v-170.666666zM896 426.666667h-128v298.666666h128c46.933333 0 85.333333-38.4 85.333333-85.333333v-128c0-46.933333-38.4-85.333333-85.333333-85.333333z"  /><path fill="#333333" d="M469.333333 917.333333h42.666667c25.6 0 42.666667 17.066667 42.666667 42.666667s-17.066667 42.666667-42.666667 42.666667h-42.666667c-25.6 0-42.666667-17.066667-42.666666-42.666667s17.066667-42.666667 42.666666-42.666667z"  /></svg>