<?xml version="1.0" standalone="no"?><!DOCTYPE svg PUBLIC "-//W3C//DTD SVG 1.1//EN" "http://www.w3.org/Graphics/SVG/1.1/DTD/svg11.dtd"><svg class="icon" width="200px" height="200.00px" viewBox="0 0 1024 1024" version="1.1" xmlns="http://www.w3.org/2000/svg"><path fill="#333333" d="M772.266667 64C738.133333 4.266667 657.066667-17.066667 597.333333 17.066667l-170.666666 98.133333-29.866667-17.066667C332.8 64 256 81.066667 221.866667 145.066667L72.533333 405.333333h896l-196.266666-341.333333z m-132.266667 29.866667c21.333333-12.8 46.933333-4.266667 59.733333 17.066666l140.8 247.466667L512 170.666667l128-76.8zM170.666667 362.666667l106.666666-183.466667c17.066667-29.866667 55.466667-42.666667 85.333334-21.333333l85.333333 51.2L725.333333 362.666667H170.666667z"  /><path fill="#333333" d="M426.666667 554.666667h170.666666c25.6 0 42.666667 17.066667 42.666667 42.666666s-17.066667 42.666667-42.666667 42.666667h-170.666666c-25.6 0-42.666667-17.066667-42.666667-42.666667s17.066667-42.666667 42.666667-42.666666zM426.666667 721.066667h170.666666c25.6 0 42.666667 21.333333 42.666667 42.666666s-21.333333 42.666667-42.666667 42.666667h-170.666666c-25.6 0-42.666667-21.333333-42.666667-42.666667s21.333333-42.666667 42.666667-42.666666z"  /><path fill="#333333" d="M904.533333 682.666667c0-46.933333 21.333333-89.6 55.466667-115.2V469.333333c0-34.133333-29.866667-64-64-64H128c-34.133333 0-64 29.866667-64 64v85.333334c42.666667 25.6 72.533333 72.533333 72.533333 128s-29.866667 102.4-72.533333 128v85.333333c0 34.133333 29.866667 64 64 64h768c34.133333 0 64-29.866667 64-64v-98.133333c-34.133333-25.6-55.466667-68.266667-55.466667-115.2z m119.466667 213.333333c0 72.533333-55.466667 128-128 128H128c-72.533333 0-128-55.466667-128-128v-128c38.4-8.533333 72.533333-42.666667 72.533333-85.333333S42.666667 605.866667 0 597.333333v-128c0-72.533333 55.466667-128 128-128h768c72.533333 0 128 55.466667 128 128v132.266667c-34.133333 12.8-55.466667 42.666667-55.466667 81.066667 0 38.4 25.6 68.266667 55.466667 81.066666V896z"  /></svg>