<?xml version="1.0" standalone="no"?><!DOCTYPE svg PUBLIC "-//W3C//DTD SVG 1.1//EN" "http://www.w3.org/Graphics/SVG/1.1/DTD/svg11.dtd"><svg class="icon" width="200px" height="200.00px" viewBox="0 0 1024 1024" version="1.1" xmlns="http://www.w3.org/2000/svg"><path fill="#333333" d="M645.9 957h-0.8c-4.5 0-14.7 0.1-32.5 0.3-30.3 0.3-76 0.7-108.6 0.9-32.5-0.2-78.3-0.6-108.6-0.9-18.3-0.2-28.6-0.3-32.9-0.3-100.6-6.5-170.1-15.6-206.5-27-0.5-0.1-0.9-0.3-1.4-0.4-13.9-3.9-24.9-9.4-32.5-16.2-5.6-5-9.5-10.9-11.8-17.9-8-23.8 2.2-62.1 24.2-91 0.2-0.3 0.5-0.6 0.7-0.9 13.2-18.1 46.7-37.6 92-53.2 41.1-14.3 80.2-21.6 91.7-22.7 18.6-1.9 42.2-8.4 63.3-17.5 32.1-13.8 52.5-30.9 62.3-52 0.2-0.5 0.5-1 0.7-1.6 0.4-0.9 0.7-1.8 1-2.6 0.6-1.6 1.1-3.2 1.5-4.9 3.7-14.7 1.8-31.3-5.6-49.1-2.7-6.4-8.1-17.9-16.1-27.4-3.9-5.2-7.9-10-11.8-14.6-5.9-6.9-11.4-13.5-14.9-19.8-10.7-19.3-19.3-50-21.6-60.3-0.3-1.3-0.6-2.4-1-3.6-5.6-18-20.5-31.3-38.8-35-2.1-0.9-12-6.5-18.4-30.2-5.4-20.8-4.1-32.6-2.8-36.8a51.22 51.22 0 0 0 13.4-50.9c-0.8-3-16.3-62-5.4-124.3 0-0.1 0-0.2 0.1-0.4 1.3-7.9 2.4-15.5 3.4-22.8 4.8-34.4 8-53.1 23.5-67.8 23-21.9 74.1-37.2 151.9-45.4 35.5 0 65.6 4.6 89.6 13.5 19 7.1 34.1 16.8 46 29.6 23.9 25.7 32.5 61.4 37.7 92.9 0 0.1 0 0.2 0.1 0.4 10.9 62.7-4.9 122.1-5.5 124.5-4.5 15.4-1.4 32 8.2 44.8 1.7 2.2 3.5 4.3 5.4 6.1 1 3.9 2.6 14.7-3 36.2-6.3 23.4-15.9 29.4-18.3 30.6-19.4 3.9-35.2 18.8-39.8 38.7-2.2 9.5-10.8 40.8-21.6 60.3-4.7 8.4-10.1 16.3-16.5 24-2.4 2.8-9 11.1-15.2 22.6-11.6 21.8-15.1 44-10.1 64.2 0.5 1.9 1.1 3.8 1.8 5.7 0.5 1.4 1 2.5 1.3 3.2l0.1 0.2c0.6 1.5 1.3 3 2.1 4.4 6.5 12.1 16.6 23.2 30.1 33.1 11.3 8.3 27.3 5.8 35.5-5.6 0.2-0.2 0.3-0.4 0.5-0.7 8.1-11.3 5.4-26.8-5.8-35.1-6.8-5-12.2-10.4-15.1-15.9l-0.6-1.5c-4.7-19 14.7-41.5 14.7-41.5 7.9-9.4 15.3-19.8 22.1-32.1 16.7-30.1 26.8-73.6 26.8-73.6h0.2s40.9-5.5 57.6-67.7c17.4-66.9-10.7-86.3-10.7-86.3h-0.2s20.1-70.3 6.7-147.3c-13.3-80-47.2-178.8-224.4-178.8h-2.2-0.1c-224.4 23-213.1 98.5-226.5 178.8-13.4 77 6.7 147.3 6.7 147.3v0.1c-2.1 1.5-27.7 22.3-11 86.5 16 59.9 54.9 66.9 57.8 67.3 0 0 10 43.5 26.8 73.6 9.3 16.7 22.6 29.3 31.6 41.7 5.2 5.2 14 23.5 11.9 31.9-9.1 19.8-59 37.5-84.2 40.1-29.3 2.9-173.1 32.3-220 96.8-47.1 61.5-67.6 173 46.8 205.2 46.9 14.7 129.1 23.5 220 29.3 6.4 0 91.1 0.9 143.2 1.2 52.1-0.3 136.8-1.2 143.2-1.2 9.9-0.6 19.7-1.3 29.4-2 11.9-0.9 16-16.1 6.2-22.9-9.7-6.8-18.8-14.4-27.3-22.7-2.6-2.5-6.1-3.8-9.7-3.6zM938.9 869.5H739.1c-16.6 0-30.1-11.6-30.1-26s13.5-26 30.1-26h199.8c16.6 0 30.1 11.6 30.1 26 0 14.3-13.5 26-30.1 26z"  /><path fill="#333333" d="M813 943.4V743.6c0-16.6 11.6-30.1 26-30.1s26 13.5 26 30.1v199.8c0 16.6-11.6 30.1-26 30.1s-26-13.5-26-30.1z"  /></svg>